<?xml version="1.0" ?><svg viewBox="0 0 64 64" xmlns="http://www.w3.org/2000/svg"><defs><style>.cls-1{fill:#d2ddff;}.cls-2{fill:#4c241d;}.cls-3{fill:none;}.cls-3,.cls-4,.cls-5,.cls-6,.cls-7{stroke:#4c241d;stroke-linecap:round;stroke-linejoin:round;stroke-width:2px;}.cls-4{fill:#ffded5;}.cls-5{fill:#e66353;}.cls-6{fill:#6b4f5b;}.cls-7{fill:#fff;}</style></defs><g id="doctor-help"><circle class="cls-1" cx="26.5" cy="40.5" r="21.5"/><circle class="cls-2" cx="52.8333" cy="16.0346" r="1.0691"/><circle class="cls-2" cx="10.8333" cy="58.0346" r="1.0691"/><line class="cls-3" x1="6.9191" x2="9.7475" y1="47.1203" y2="49.9488"/><line class="cls-3" x1="9.7475" x2="6.9191" y1="47.1203" y2="49.9488"/><path class="cls-4" d="M57,63.1429V39L43.4286,20.1031,37.5714,51.0559a4.82,4.82,0,0,0,2.875,5.4809L44,58v5"/><path class="cls-5" d="M40.9261,1H19.0738A4.0738,4.0738,0,0,0,15,5.0739V50.9261A4.0738,4.0738,0,0,0,19.0738,55H40.9261A4.0739,4.0739,0,0,0,45,50.9261V5.0738A4.0738,4.0738,0,0,0,40.9261,1Z"/><path class="cls-6" d="M24.4038,1H35.5961A.4039.4039,0,0,1,36,1.4039v0A2.5961,2.5961,0,0,1,33.4039,4H26.5961A2.5961,2.5961,0,0,1,24,1.4039v0A.4039.4039,0,0,1,24.4038,1Z"/><line class="cls-3" x1="25" x2="35" y1="52" y2="52"/><path class="cls-4" d="M48.0943,39.0553,38,28l-1.0729.98a4.822,4.822,0,0,0-.3421,6.81l5.1763,5.6691S40.1816,47.4,47,53"/><polygon class="cls-7" points="39 15 33 15 33 9 27 9 27 15 21 15 21 21 27 21 27 27 33 27 33 21 39 21 39 15"/></g></svg>